<?xml version="1.0" encoding="utf-8"?>
<!-- Generator: Adobe Illustrator 16.0.0, SVG Export Plug-In . SVG Version: 6.00 Build 0)  -->
<!DOCTYPE svg PUBLIC "-//W3C//DTD SVG 1.1//EN" "http://www.w3.org/Graphics/SVG/1.1/DTD/svg11.dtd">
<svg version="1.1" id="Layer_1" xmlns="http://www.w3.org/2000/svg" xmlns:xlink="http://www.w3.org/1999/xlink" x="0px" y="0px"
	 width="202.116px" height="202.116px" viewBox="0 0 202.116 202.116" enable-background="new 0 0 202.116 202.116"
	 xml:space="preserve">
<g>
	<path fill="#FFFFFF" d="M156.192,46.601c-3.142-3.36-6.578-4.483-11.899-4.483l-11.503,18.398c5.725,0,10.622,1.667,9.622,12.047
		v26.175c0,10.658-0.841,15.06-11.872,15.06h-30.223l-28.905,46.758v-0.757h18v-28h40.567c10.096,0,17.119-1.197,24.411-9.423
		c6.919-7.666,7.022-14.849,7.022-24.384V72.563C161.413,62.465,161.792,52.59,156.192,46.601z"/>
	<path fill="#FFFFFF" d="M149.036,13.548l-17.464,28.25H58.413v118.343l-17.715,28.657h3.116L152.435,13.318L149.036,13.548z
		 M77.413,113.798V60.526L120,60.515l-32.939,53.283H77.413z"/>
</g>
</svg>
